<?xml version="1.0" encoding="iso-8859-1"?>
<!-- Uploaded to: SVG Repo, www.svgrepo.com, Generator: SVG Repo Mixer Tools -->
<svg version="1.1" id="Layer_1" xmlns="http://www.w3.org/2000/svg" xmlns:xlink="http://www.w3.org/1999/xlink" 
	 viewBox="0 0 511.988 511.988" xml:space="preserve">
<path d="M17.032,243.848C9.944,243.584,4.264,237.896,4,230.808V102.482c0.264-7.088,5.944-12.768,13.032-13.032h425.873
	c7.088,0.264,12.768,5.944,13.032,13.032v129.43c-1.24,6.864-7.2,11.864-14.168,11.896L17.032,243.848z"/>
<path style="fill:#E81241;" d="M442.905,93.45c4.88,0.248,8.784,4.152,9.032,9.032V231.28c-0.92,4.912-5.176,8.488-10.168,8.552
	H17.032c-4.88-0.24-8.776-4.136-9.032-9.016V102.482c0.248-4.88,4.152-8.784,9.032-9.032H442.905 M442.905,85.451H17.032
	C7.72,85.674,0.224,93.17,0,102.482v128.334c0.224,9.312,7.72,16.808,17.032,17.032h424.737c9.176-0.056,16.912-6.848,18.168-15.936
	v-129.43C459.713,93.17,452.217,85.674,442.905,85.451z"/>
<g>
	
		<rect x="445.535" y="333.965" transform="matrix(0.7071 -0.7071 0.7071 0.7071 -132.3566 440.3825)" style="fill:#E21B1B;" width="39.751" height="91.99"/>
	<polygon style="fill:#E21B1B;" points="389.53,389.862 371.362,287.647 473.569,305.823 	"/>
</g>
<g>
	<path style="fill:#FFFFFF;" d="M164.669,201.289c-5.424,2.152-11.192,3.312-17.032,3.424c-15.632,0.72-28.88-11.368-29.6-27
		c-0.056-1.224-0.032-2.448,0.072-3.664c-0.792-16.768,12.16-31.008,28.936-31.799c0.952-0.048,1.912-0.048,2.864,0
		c5.16-0.528,10.352,0.672,14.76,3.408l-2.272,7.952c-3.84-2.112-8.12-3.28-12.496-3.408c-11.688-0.272-21.384,8.984-21.648,20.672
		c-0.016,0.68,0,1.36,0.048,2.04c-0.952,11.544,7.632,21.68,19.184,22.632c0.44,0.04,0.88,0.056,1.312,0.064
		c4.768,0.232,9.504-0.952,13.6-3.408L164.669,201.289z"/>
	<path style="fill:#FFFFFF;" d="M177.165,114.978h11.36v88.583h-11.36V114.978z"/>
	<path style="fill:#FFFFFF;" d="M219.197,126.314c0.152,3.608-2.648,6.664-6.264,6.816c-0.184,0.008-0.368,0.008-0.552,0
		c-3.768,0-6.816-3.048-6.816-6.816s3.048-6.816,6.816-6.816C216.149,119.498,219.197,122.546,219.197,126.314L219.197,126.314z
		 M206.701,203.537V143.37h11.36v60.191L206.701,203.537z"/>
	<path style="fill:#FFFFFF;" d="M278.236,201.289c-5.424,2.152-11.192,3.312-17.032,3.424c-15.632,0.72-28.88-11.368-29.6-27
		c-0.056-1.224-0.032-2.448,0.072-3.664c-0.792-16.768,12.16-31.008,28.936-31.799c0.952-0.048,1.912-0.048,2.864,0
		c5.16-0.528,10.352,0.672,14.76,3.408l-2.272,7.952c-3.84-2.112-8.12-3.28-12.496-3.408c-11.688-0.272-21.384,8.984-21.648,20.672
		c-0.016,0.68,0,1.36,0.048,2.04c-0.96,11.544,7.616,21.68,19.16,22.648c0.424,0.032,0.848,0.056,1.28,0.064
		c4.768,0.232,9.504-0.952,13.6-3.408L278.236,201.289z"/>
	<path style="fill:#FFFFFF;" d="M302.083,170.625L302.083,170.625c2.272-2.272,3.408-4.544,5.68-6.816l18.168-20.44h13.6
		l-22.712,24.984l26.12,35.199h-13.6l-20.44-28.392l-5.68,5.68v22.712h-11.36v-88.575h11.336v55.647H302.083z"/>
</g>
<polygon style="fill:#E21B1B;" points="7.08,166.649 7.08,89.666 84.063,89.666 "/>
</svg>